<svg xmlns="http://www.w3.org/2000/svg" height="612pt" version="1.1" viewBox="-5 0 612 612" width="612pt">
<g id="surface1">
<path d="M 448.800781 0 C 364.304688 0 295.800781 68.503906 295.800781 153 C 295.800781 237.496094 364.304688 306 448.800781 306 C 533.296875 306 601.800781 237.496094 601.800781 153 C 601.707031 68.542969 533.257812 0.09375 448.800781 0 Z M 316.71875 163.199219 L 368.902344 163.199219 C 369.523438 183.792969 372.105469 204.285156 376.59375 224.398438 L 337.242188 224.398438 C 325.429688 206.019531 318.371094 184.988281 316.71875 163.199219 Z M 459 61.199219 L 459 20.921875 C 466.710938 21.511719 474.351562 22.785156 481.839844 24.734375 C 487.273438 36.578125 491.945312 48.757812 495.820312 61.199219 Z M 501.472656 81.601562 C 506.296875 101.664062 509.082031 122.175781 509.765625 142.800781 L 459 142.800781 L 459 81.601562 Z M 438.601562 61.199219 L 403.257812 61.199219 C 407.144531 48.734375 411.824219 36.535156 417.261719 24.675781 L 416.8125 24.480469 C 423.964844 22.683594 431.257812 21.503906 438.601562 20.921875 Z M 438.601562 81.601562 L 438.601562 142.800781 L 389.3125 142.800781 C 389.996094 122.175781 392.78125 101.664062 397.605469 81.601562 Z M 368.902344 142.800781 L 316.71875 142.800781 C 318.371094 121.011719 325.429688 99.980469 337.242188 81.601562 L 376.59375 81.601562 C 372.105469 101.714844 369.527344 122.207031 368.902344 142.800781 Z M 389.304688 163.199219 L 438.601562 163.199219 L 438.601562 224.398438 L 397.605469 224.398438 C 392.78125 204.335938 389.996094 183.824219 389.304688 163.199219 Z M 438.601562 244.800781 L 438.601562 285.078125 C 431.257812 284.507812 423.964844 283.324219 416.8125 281.539062 L 417.261719 281.328125 C 411.824219 269.464844 407.144531 257.265625 403.257812 244.800781 Z M 459 244.800781 L 495.820312 244.800781 C 491.945312 257.242188 487.273438 269.421875 481.839844 281.265625 C 474.351562 283.214844 466.710938 284.488281 459 285.078125 C 459 285.078125 459 244.800781 459 244.800781 Z M 459 224.398438 L 459 163.199219 L 509.765625 163.199219 C 509.082031 183.824219 506.296875 204.335938 501.472656 224.398438 Z M 530.175781 163.199219 L 580.878906 163.199219 C 579.226562 184.988281 572.167969 206.019531 560.359375 224.398438 L 522.484375 224.398438 C 526.972656 204.285156 529.554688 183.792969 530.175781 163.199219 Z M 530.175781 142.800781 C 529.554688 122.207031 526.972656 101.714844 522.484375 81.601562 L 560.359375 81.601562 C 572.171875 99.980469 579.226562 121.011719 580.878906 142.800781 Z M 544.261719 61.199219 L 517.140625 61.199219 C 514.507812 52.242188 511.53125 43.351562 508.121094 34.589844 C 521.585938 41.351562 533.808594 50.347656 544.261719 61.199219 Z M 391.261719 33.722656 C 387.710938 42.769531 384.640625 51.949219 381.929688 61.199219 L 353.367188 61.199219 C 364.273438 49.878906 377.105469 40.566406 391.261719 33.722656 Z M 353.339844 244.800781 L 381.898438 244.800781 C 384.609375 254.050781 387.679688 263.230469 391.230469 272.277344 C 377.074219 265.433594 364.242188 256.132812 353.339844 244.800781 Z M 508.132812 271.410156 C 511.539062 262.648438 514.519531 253.757812 517.148438 244.800781 L 544.261719 244.800781 C 533.808594 255.652344 521.597656 264.648438 508.132812 271.410156 Z M 508.132812 271.410156 " style=" stroke:none;fill-rule:nonzero;fill:rgb(52.941176%,80.784314%,85.098039%);fill-opacity:1;" />
<path d="M 0 499.800781 C 0 516.699219 13.699219 530.398438 30.601562 530.398438 L 255 530.398438 C 271.902344 530.398438 285.601562 516.699219 285.601562 499.800781 L 285.601562 469.199219 L 0 469.199219 Z M 0 499.800781 " style=" stroke:none;fill-rule:nonzero;fill:rgb(85.490196%,86.666667%,87.45098%);fill-opacity:1;" />
<path d="M 255 316.199219 L 30.601562 316.199219 C 13.699219 316.199219 0 329.898438 0 346.800781 L 0 469.199219 L 285.601562 469.199219 L 285.601562 346.800781 C 285.601562 329.898438 271.902344 316.199219 255 316.199219 Z M 255 316.199219 " style=" stroke:none;fill-rule:nonzero;fill:rgb(26.27451%,59.607843%,81.960784%);fill-opacity:1;" />
<path d="M 190.882812 591.601562 L 173.398438 530.398438 L 112.199219 530.398438 L 94.71875 591.601562 L 61.199219 591.601562 L 61.199219 612 L 224.398438 612 L 224.398438 591.601562 Z M 190.882812 591.601562 " style=" stroke:none;fill-rule:nonzero;fill:rgb(85.490196%,86.666667%,87.45098%);fill-opacity:1;" />
<path d="M 255 81.601562 L 275.398438 81.601562 L 275.398438 102 L 255 102 Z M 255 81.601562 " style=" stroke:none;fill-rule:nonzero;fill:rgb(52.941176%,80.784314%,85.098039%);fill-opacity:1;" />
<path d="M 214.199219 81.601562 L 234.601562 81.601562 L 234.601562 102 L 214.199219 102 Z M 214.199219 81.601562 " style=" stroke:none;fill-rule:nonzero;fill:rgb(52.941176%,80.784314%,85.098039%);fill-opacity:1;" />
<path d="M 173.398438 81.601562 L 193.800781 81.601562 L 193.800781 102 L 173.398438 102 Z M 173.398438 81.601562 " style=" stroke:none;fill-rule:nonzero;fill:rgb(52.941176%,80.784314%,85.098039%);fill-opacity:1;" />
<path d="M 132.601562 81.601562 L 153 81.601562 L 153 102 L 132.601562 102 Z M 132.601562 81.601562 " style=" stroke:none;fill-rule:nonzero;fill:rgb(52.941176%,80.784314%,85.098039%);fill-opacity:1;" />
<path d="M 132.601562 224.398438 L 153 224.398438 L 153 244.800781 L 132.601562 244.800781 Z M 132.601562 224.398438 " style=" stroke:none;fill-rule:nonzero;fill:rgb(52.941176%,80.784314%,85.098039%);fill-opacity:1;" />
<path d="M 132.601562 265.199219 L 153 265.199219 L 153 285.601562 L 132.601562 285.601562 Z M 132.601562 265.199219 " style=" stroke:none;fill-rule:nonzero;fill:rgb(52.941176%,80.784314%,85.098039%);fill-opacity:1;" />
<path d="M 316.199219 448.800781 L 336.601562 448.800781 L 336.601562 469.199219 L 316.199219 469.199219 Z M 316.199219 448.800781 " style=" stroke:none;fill-rule:nonzero;fill:rgb(52.941176%,80.784314%,85.098039%);fill-opacity:1;" />
<path d="M 173.398438 163.199219 C 173.398438 180.101562 159.699219 193.800781 142.800781 193.800781 C 125.898438 193.800781 112.199219 180.101562 112.199219 163.199219 C 112.199219 146.300781 125.898438 132.601562 142.800781 132.601562 C 159.699219 132.601562 173.398438 146.300781 173.398438 163.199219 Z M 173.398438 163.199219 " style=" stroke:none;fill-rule:nonzero;fill:rgb(26.27451%,59.607843%,81.960784%);fill-opacity:1;" />
<path d="M 469.199219 459 C 469.199219 475.898438 455.5 489.601562 438.601562 489.601562 C 421.699219 489.601562 408 475.898438 408 459 C 408 442.101562 421.699219 428.398438 438.601562 428.398438 C 455.5 428.398438 469.199219 442.101562 469.199219 459 Z M 469.199219 459 " style=" stroke:none;fill-rule:nonzero;fill:rgb(26.27451%,59.607843%,81.960784%);fill-opacity:1;" />
<path d="M 357 448.800781 L 377.398438 448.800781 L 377.398438 469.199219 L 357 469.199219 Z M 357 448.800781 " style=" stroke:none;fill-rule:nonzero;fill:rgb(52.941176%,80.784314%,85.098039%);fill-opacity:1;" />
<path d="M 499.800781 448.800781 L 520.199219 448.800781 L 520.199219 469.199219 L 499.800781 469.199219 Z M 499.800781 448.800781 " style=" stroke:none;fill-rule:nonzero;fill:rgb(52.941176%,80.784314%,85.098039%);fill-opacity:1;" />
<path d="M 499.800781 408 L 520.199219 408 L 520.199219 428.398438 L 499.800781 428.398438 Z M 499.800781 408 " style=" stroke:none;fill-rule:nonzero;fill:rgb(52.941176%,80.784314%,85.098039%);fill-opacity:1;" />
<path d="M 499.800781 367.199219 L 520.199219 367.199219 L 520.199219 387.601562 L 499.800781 387.601562 Z M 499.800781 367.199219 " style=" stroke:none;fill-rule:nonzero;fill:rgb(52.941176%,80.784314%,85.098039%);fill-opacity:1;" />
<path d="M 499.800781 326.398438 L 520.199219 326.398438 L 520.199219 346.800781 L 499.800781 346.800781 Z M 499.800781 326.398438 " style=" stroke:none;fill-rule:nonzero;fill:rgb(52.941176%,80.784314%,85.098039%);fill-opacity:1;" />
<path d="M 255 316.199219 L 244.800781 316.199219 L 91.800781 469.199219 L 285.601562 469.199219 L 285.601562 346.800781 C 285.601562 329.898438 271.902344 316.199219 255 316.199219 Z M 255 316.199219 " style=" stroke:none;fill-rule:nonzero;fill:rgb(24.313725%,54.901961%,78.039216%);fill-opacity:1;" />
<path d="M 179.222656 550.800781 L 173.398438 530.398438 L 112.199219 530.398438 L 106.375 550.800781 Z M 179.222656 550.800781 " style=" stroke:none;fill-rule:nonzero;fill:rgb(78.039216%,79.215686%,80%);fill-opacity:1;" />
</g>
</svg>